HIERARCHY
ROOT Hips
{
	OFFSET 0.00000 0.00000 0.00000
	CHANNELS 6 Xposition Yposition Zposition Zrotation Yrotation Xrotation 
	JOINT LHipJoint
	{
		OFFSET 0 0 0
		CHANNELS 3 Zrotation Yrotation Xrotation
		JOINT LeftHip
		{
			OFFSET 1.56741 -1.82513 0.67319
			CHANNELS 3 Zrotation Yrotation Xrotation
			JOINT LeftKnee
			{
				OFFSET 2.35708 -6.47604 0.00000
				CHANNELS 3 Zrotation Yrotation Xrotation
				JOINT LeftAnkle
				{
					OFFSET 2.70636 -7.43567 0.00000
					CHANNELS 3 Zrotation Yrotation Xrotation
					JOINT LeftToe
					{
						OFFSET 0.20427 -0.56122 2.08535
						CHANNELS 3 Zrotation Yrotation Xrotation
						End Site
						{
							OFFSET 0.00000 -0.00000 1.08535
						}
					}
				}
			}
		}
	}
	JOINT RHipJoint
	{
		OFFSET 0 0 0
		CHANNELS 3 Zrotation Yrotation Xrotation
		JOINT RightHip
		{
			OFFSET -1.51422 -1.82513 0.67319
			CHANNELS 3 Zrotation Yrotation Xrotation
			JOINT RightKnee
			{
				OFFSET -2.48824 -6.83638 0.00000
				CHANNELS 3 Zrotation Yrotation Xrotation
				JOINT RightAnkle
				{
					OFFSET -2.70033 -7.41909 0.00000
					CHANNELS 3 Zrotation Yrotation Xrotation
					JOINT RightToe
					{
						OFFSET -0.19750 -0.54263 2.22151
						CHANNELS 3 Zrotation Yrotation Xrotation
						End Site
						{
							OFFSET -0.00000 -0.00000 1.14915
						}
					}
				}
			}
		}
	}
	JOINT lowerback
	{
		OFFSET 0 0 0
		CHANNELS 3 Zrotation Yrotation Xrotation
		JOINT Chest
		{
			OFFSET -0.01567 2.12874 -0.15842
			CHANNELS 3 Zrotation Yrotation Xrotation
			JOINT Chest2
			{
				OFFSET 0.06098 2.13326 -0.01043
				CHANNELS 3 Zrotation Yrotation Xrotation
				JOINT lowerneck
				{
					OFFSET 0 0 0
					CHANNELS 3 Zrotation Yrotation Xrotation
					JOINT Neck
					{
						OFFSET -0.05040 1.78432 0.13387
						CHANNELS 3 Zrotation Yrotation Xrotation
						JOINT Head
						{
							OFFSET -0.00180 1.76880 -0.33303
							CHANNELS 3 Zrotation Yrotation Xrotation
							End Site
							{
								OFFSET 0.00734 1.81249 -0.12719
							}
						}
					}
				}
				JOINT LeftCollar
				{
					OFFSET 0 0 0
					CHANNELS 3 Zrotation Yrotation Xrotation
					JOINT LeftShoulder
					{
						OFFSET 3.72199 0.94188 -0.54317
CHANNELS 3 Zrotation Xrotation Yrotation
						JOINT LeftElbow
						{
OFFSET 0 -5.146010 0.000000
CHANNELS 3 Zrotation Xrotation Yrotation
							JOINT LeftWrist
							{
OFFSET 0 -3.644520 -0.000000
CHANNELS 3 Zrotation Xrotation Yrotation
								JOINT lhand
								{
									OFFSET 0 0 0
CHANNELS 3 Zrotation Xrotation Yrotation
									JOINT LFingers
									{
OFFSET 0 -0.562280 0.000000
CHANNELS 3 Zrotation Xrotation Yrotation
										End Site
										{
OFFSET 0 -0.453320 0.000000
										}
									}
								}
								JOINT LThumb
								{
OFFSET 0 0.000000 0.000000
CHANNELS 3 Zrotation Xrotation Yrotation
									End Site
									{
OFFSET 0 -0.460250 0.460250
									}
								}
							}
						}
					}
				}
				JOINT RightCollar
				{
					OFFSET 0 0 0
					CHANNELS 3 Zrotation Yrotation Xrotation
					JOINT RightShoulder
					{
						OFFSET -3.30253 1.22679 -0.46941
CHANNELS 3 Zrotation Xrotation Yrotation
						JOINT RightElbow
						{
OFFSET 0 -5.339130 0.000000
CHANNELS 3 Zrotation Xrotation Yrotation
							JOINT RightWrist
							{
OFFSET 0 -3.564780 -0.000000
CHANNELS 3 Zrotation Xrotation Yrotation
								JOINT rhand
								{
									OFFSET 0 0 0
CHANNELS 3 Zrotation Xrotation Yrotation
									JOINT RFingers
									{
OFFSET 0 -0.857470 0.000000
CHANNELS 3 Zrotation Xrotation Yrotation
										End Site
										{
OFFSET 0 -0.691320 0.000000
										}
									}
								}
								JOINT RThumb
								{
OFFSET 0 0.000000 0.000000
CHANNELS 3 Zrotation Xrotation Yrotation
									End Site
									{
OFFSET 0 -0.701870 0.701870
									}
								}
							}
						}
					}
				}
			}
		}
	}
}
MOTION
Frames: 12
Frame Time: 0.008333333333333333
-10.879400 17.528400 -5.910400 -1.815700 -9.325400 4.382400 0.000000 0.000000 0.000000 -14.904300 -10.769000 -26.546700 1.040300 6.486800 18.203600 0.047100 4.217200 4.543200 0.610300 -5.000000 -13.908600 0.000000 0.000000 0.000000 23.335300 0.450600 -1.030700 -3.699100 -11.748900 34.849400 -0.651100 6.714000 -14.440600 -0.116100 2.196900 -6.050100 -0.842700 1.296200 8.468700 2.266500 1.703200 2.542700 2.641900 0.843900 -2.207100 -4.005600 0.321100 -15.417200 1.703300 1.059300 21.899000 1.391100 0.346100 9.423200 0.000000 -0.000000 0.000000 -2.591800 2.276500 -0.552600 10.489300 -17.501300 1.619000 18.781300 20.634300 -32.176900 0.000000 0.000000 0.000000 -7.125000 0.000000 0.000000 -16.223100 62.869100 7.137700 0.000000 -0.000000 0.000000 -0.594600 1.293300 -3.924700 -17.877600 -28.000200 -4.491600 10.428700 15.824000 -9.834800 0.000000 0.000000 0.000000 7.125000 0.000000 -0.000000 25.874900 20.235400 17.144900
-10.736612 17.839821 -4.755143 -3.436078 -9.813885 6.367641 0.000000 0.000000 0.000000 -14.715634 -9.682370 -23.485479 0.919949 6.111019 17.106776 -0.010279 2.934333 1.384085 0.216516 -2.990818 -8.253539 0.000000 0.000000 0.000000 23.461070 2.192416 1.266876 -3.310332 -11.181168 32.893330 0.057425 6.527084 -2.863256 -0.001696 0.028019 -0.076985 -0.731206 1.923896 6.000266 1.782569 2.548902 1.587913 2.051454 1.272925 -1.839203 -4.046696 0.139759 -15.778997 2.071860 0.748177 22.129005 1.492261 0.238669 9.578667 0.000000 0.000000 0.000000 -1.081964 2.351853 -1.880641 11.567952 -19.153552 1.958192 17.687877 15.767510 -31.146152 0.000000 0.000000 0.000000 -7.125000 0.000000 0.000000 -16.626623 61.603685 6.823530 0.000000 0.000000 0.000000 0.408453 3.906931 -0.259605 -18.512606 -28.808363 -4.793815 10.399091 16.179109 -9.056851 0.000000 0.000000 0.000000 7.125000 0.000000 0.000000 26.001768 20.946610 16.771277
-10.635383 18.003182 -3.804100 -4.443669 -9.592983 7.150399 0.000000 0.000000 0.000000 -14.955594 -7.569697 -20.063146 0.769670 5.601953 15.633880 0.007934 0.030185 -1.688471 0.350675 -3.804509 -10.527312 0.000000 0.000000 0.000000 22.636704 2.274950 -4.132171 -5.698694 -14.128635 43.757839 0.168768 7.450230 0.980781 -0.190750 -2.811084 7.753399 -1.822116 1.497307 5.608045 1.501933 1.920371 0.729080 2.421425 0.980012 -2.503892 -3.880179 0.943165 -15.300663 2.064350 1.805014 21.297700 1.576536 0.752069 9.162966 0.000000 0.000000 0.000000 0.882459 2.860452 -4.517986 14.274189 -23.125222 2.934946 17.802069 12.241280 -32.073331 0.000000 0.000000 0.000000 -7.125000 0.000000 0.000000 -17.239513 62.517202 7.457525 0.000000 0.000000 0.000000 0.555655 4.171245 2.390638 -19.200988 -29.667659 -5.129920 8.768306 15.547074 -10.803132 0.000000 0.000000 0.000000 7.125000 0.000000 0.000000 24.652796 19.395287 16.672629
-10.566045 18.063718 -2.992274 -4.094154 -8.488955 6.058361 0.000000 0.000000 0.000000 -16.584458 -6.715369 -15.513361 0.683322 5.285175 14.723689 0.049974 -1.207129 -3.974969 0.310226 -3.580477 -9.899242 0.000000 0.000000 0.000000 21.159078 2.142240 -11.965288 -9.385811 -17.049048 57.414171 0.133133 9.530548 -3.996424 -0.022405 -0.956800 2.630098 -3.345772 0.840592 6.354855 1.142503 0.921487 1.106326 2.982409 0.488948 -2.492739 -4.347730 1.364176 -16.548051 2.370282 2.501371 22.389805 1.881113 1.055861 9.742705 0.000000 0.000000 0.000000 3.544296 -0.203258 -7.763604 16.364114 -26.011839 3.804292 19.216910 11.626650 -28.166721 0.000000 0.000000 0.000000 -7.125000 0.000000 0.000000 -12.932073 59.066157 4.492599 0.000000 0.000000 0.000000 -0.256750 1.896430 2.897440 -19.153308 -29.608664 -5.106397 4.650768 15.228162 -9.236308 0.000000 0.000000 0.000000 7.125000 0.000000 0.000000 22.224520 20.908344 13.894627
-10.526189 18.024900 -2.230739 -3.644436 -5.563008 4.980086 0.000000 0.000000 0.000000 -18.083436 -6.511983 -13.192465 0.893549 6.024392 16.855282 0.140238 -3.790221 -6.765964 0.470886 -4.400907 -12.207363 0.000000 0.000000 0.000000 20.451787 1.938462 -19.959654 -11.182672 -18.023304 63.373307 -0.151573 7.595846 -8.168907 -0.093973 1.976130 -5.439754 -4.479724 0.278441 6.598794 1.240332 0.085645 0.864952 3.797337 0.095334 -2.815792 -4.461619 1.320572 -14.043340 2.309733 2.362470 22.333614 1.824372 0.973733 9.258561 0.000000 0.000000 0.000000 4.987717 -2.209336 -10.577556 19.803888 -30.404841 5.431939 20.489420 11.006925 -31.435467 0.000000 0.000000 0.000000 -7.125000 0.000000 0.000000 -13.704113 62.594088 5.915425 0.000000 0.000000 0.000000 -1.091029 4.110873 3.242444 -21.059973 -31.898065 -6.081693 -2.492728 12.475927 -9.139481 0.000000 0.000000 0.000000 7.125000 0.000000 0.000000 17.380366 20.979407 10.489873
-10.504071 17.875413 -1.527814 -2.007639 -3.267995 4.254130 0.000000 0.000000 0.000000 -20.483980 -6.341129 -12.530912 1.371908 7.412489 20.943362 0.250596 -6.568377 -9.379178 0.218660 -3.010168 -8.306935 0.000000 0.000000 0.000000 18.405017 4.305909 -28.052614 -10.797862 -17.834681 62.123339 -0.256382 7.065649 -9.605277 -0.099019 2.029223 -5.586305 -5.791761 -0.138994 7.480248 0.884631 -0.629158 0.867364 4.243641 -0.234991 -3.225213 -4.122884 1.861917 -13.505020 2.360361 3.001690 22.424092 1.851829 1.305578 9.167810 0.000000 0.000000 0.000000 5.858412 -3.806003 -13.060499 24.054698 -35.222023 7.738103 18.118131 6.613976 -31.364193 0.000000 0.000000 0.000000 -7.125000 0.000000 0.000000 -16.319783 61.920284 6.816149 0.000000 0.000000 0.000000 -0.779182 4.988939 3.126199 -23.175012 -34.279574 -7.236645 -8.165074 12.612207 -5.542426 0.000000 0.000000 0.000000 7.125000 0.000000 0.000000 13.718598 24.380978 7.027008
-10.492791 17.728470 -0.767473 -0.499058 -1.497419 3.383672 0.000000 0.000000 0.000000 -22.921201 -5.645165 -10.325010 1.678995 8.162716 23.209377 0.425952 -7.258337 -11.934492 0.227871 -3.072439 -8.480489 0.000000 0.000000 0.000000 16.332410 7.790484 -33.094450 -8.217250 -16.275596 53.339603 -0.198308 6.185770 -8.437820 -0.043738 1.348723 -3.708843 -6.293486 -0.480160 8.324226 0.854221 -1.170123 1.264738 4.561634 -0.508025 -3.209802 -3.723771 2.629901 -13.217846 1.844332 4.094870 22.665937 1.731711 1.790321 9.180470 0.000000 0.000000 0.000000 5.707509 -5.928315 -14.630169 24.869158 -36.069927 8.212737 17.275204 4.639197 -31.171616 0.000000 0.000000 0.000000 -7.125000 0.000000 0.000000 -17.101616 61.524916 6.994753 0.000000 0.000000 0.000000 -0.708420 5.453990 3.580605 -24.350182 -35.532417 -7.909187 -12.849111 12.380508 -5.960406 0.000000 0.000000 0.000000 7.125000 0.000000 0.000000 10.252598 23.879226 5.306809
-10.471486 17.648585 0.083183 1.026115 -1.474610 2.785386 0.000000 0.000000 0.000000 -25.677337 -4.526363 -5.802398 1.456651 7.628501 21.591283 0.576016 -5.773320 -13.536530 0.135935 -2.376295 -6.546961 0.000000 0.000000 0.000000 14.181033 11.123885 -36.472798 -5.419344 -13.840910 42.604093 -0.052825 4.491734 -4.821921 -0.063507 1.626453 -4.474354 -6.591910 -0.555058 8.685040 1.224970 -1.299785 1.562837 5.138663 -0.581203 -3.067041 -3.002444 3.844813 -12.230666 0.707521 5.851641 22.476055 1.392567 2.557586 8.940496 0.000000 0.000000 0.000000 4.495319 -6.694805 -16.747523 23.726779 -34.873967 7.549780 16.389228 4.142262 -31.456920 0.000000 0.000000 0.000000 -7.125000 0.000000 0.000000 -18.310462 61.574762 7.536656 0.000000 0.000000 0.000000 -1.524176 5.355550 3.824341 -24.030544 -35.196543 -7.724132 -12.103347 13.253782 -5.313346 0.000000 0.000000 0.000000 7.125000 0.000000 0.000000 10.846065 24.546780 5.453940
-10.425082 17.470371 1.045761 3.744785 -2.613813 2.243735 0.000000 0.000000 0.000000 -29.510673 -1.948801 -0.762338 1.142166 6.786657 19.084861 0.794885 -4.742287 -15.914572 0.260976 -3.286033 -9.076189 0.000000 0.000000 0.000000 12.342656 11.125332 -40.242314 -4.590662 -12.907415 39.022902 -0.007552 3.528641 -2.814748 -0.097463 2.009773 -5.532673 -7.049293 -0.553847 8.502753 1.203698 -1.310144 2.142569 5.363241 -0.627889 -2.347142 -2.134437 5.429392 -11.916246 -0.276289 8.088917 22.470882 1.152692 3.575714 8.920641 0.000000 0.000000 0.000000 3.620312 -5.631286 -21.029933 25.683922 -36.894857 8.697220 14.602703 1.139971 -32.496129 0.000000 0.000000 0.000000 -7.125000 0.000000 0.000000 -21.113764 62.101291 8.997333 0.000000 0.000000 0.000000 -1.861524 4.963519 2.770076 -23.321070 -34.437878 -7.319124 -13.139980 13.399621 -6.433936 0.000000 0.000000 0.000000 7.125000 0.000000 0.000000 10.010454 23.393160 5.291203
-10.388815 17.120909 2.089895 5.138194 -2.934758 2.024455 0.000000 0.000000 0.000000 -31.862981 -1.524009 2.067064 1.461166 7.639667 21.624851 1.260000 -4.106792 -20.260350 0.171422 -2.666831 -7.352618 0.000000 0.000000 0.000000 12.084522 10.289273 -43.938676 -5.727123 -14.158092 43.875504 0.020103 3.282689 -1.047085 -0.074020 1.732064 -4.766386 -5.510021 -0.966625 9.128352 1.958772 -1.728431 2.643251 5.333771 -0.862554 -2.136950 -2.844977 6.698115 -13.105434 -0.532296 10.172756 23.501309 1.486091 4.415649 9.459886 0.000000 0.000000 0.000000 2.049209 -5.513247 -22.978351 27.326931 -38.489135 9.701891 15.054727 1.165974 -32.368496 0.000000 0.000000 0.000000 -7.125000 0.000000 0.000000 -20.536502 62.092553 8.752954 0.000000 0.000000 0.000000 -2.727582 4.876917 2.057685 -23.902455 -35.060871 -7.650450 -13.827752 13.715645 -5.731227 0.000000 0.000000 0.000000 7.125000 0.000000 0.000000 9.545808 24.086385 4.884111
-10.466649 16.627993 3.243789 5.404773 -1.678217 2.944760 0.000000 0.000000 0.000000 -31.952628 -1.102491 3.125447 2.133002 9.137708 26.227111 2.033377 -6.137621 -25.725206 0.199565 -2.874072 -7.928520 0.000000 0.000000 0.000000 12.475930 10.246701 -45.153103 -7.632166 -15.841520 51.226039 -0.032052 6.497826 -5.333242 -0.284996 -3.424786 9.464499 -4.137435 -1.727478 9.755281 3.461445 -2.589751 2.764724 6.249852 -1.297356 -2.233533 -1.749939 8.057911 -12.485285 -2.987760 12.279000 21.652988 0.665122 5.304013 8.931272 0.000000 0.000000 0.000000 1.139511 -5.447406 -25.476046 28.126675 -39.232574 10.203734 15.930860 1.106185 -30.343459 0.000000 0.000000 0.000000 -7.125000 0.000000 0.000000 -17.932891 60.410843 6.869138 0.000000 0.000000 0.000000 -4.274140 4.699999 0.896003 -23.517612 -34.649732 -7.430562 -13.101545 14.619506 -4.884689 0.000000 0.000000 0.000000 7.125000 0.000000 0.000000 10.137321 24.959562 4.987338
-10.593488 16.343412 4.457583 4.915264 -2.469301 4.145355 0.000000 0.000000 0.000000 -32.001227 -1.473510 6.521863 2.328362 9.518507 27.431542 2.328915 -3.932609 -27.934688 0.502883 -4.544437 -12.613916 0.000000 0.000000 0.000000 13.486117 12.450913 -45.828135 -9.826140 -17.310826 58.905633 -0.371103 4.105205 -10.827923 -0.467143 -4.383327 12.157783 -3.124768 -1.971706 9.712054 4.778438 -2.784610 3.049394 7.082301 -1.419249 -1.866667 -1.283336 9.006866 -12.730922 -4.066736 13.725950 21.226222 0.413406 5.917178 8.963374 0.000000 0.000000 0.000000 0.927577 -5.514778 -27.725746 26.206456 -37.410667 9.013235 17.355540 3.860083 -30.633772 0.000000 0.000000 0.000000 -7.125000 0.000000 0.000000 -16.604812 61.030239 6.589445 0.000000 0.000000 0.000000 -5.323326 2.961126 -1.369780 -20.816670 -31.612033 -5.954368 -13.537780 14.254319 -5.165449 0.000000 0.000000 0.000000 7.125000 0.000000 0.000000 9.794926 24.666770 4.881375
